<?xml version="1.0" encoding="utf-8"?>
<!-- Generator: Adobe Illustrator 25.0.0, SVG Export Plug-In . SVG Version: 6.00 Build 0)  -->
<svg version="1.1" id="Capa_1" xmlns="http://www.w3.org/2000/svg" xmlns:xlink="http://www.w3.org/1999/xlink" x="0px" y="0px"
	 viewBox="0 0 449.8 335.1" style="enable-background:new 0 0 449.8 335.1;" xml:space="preserve">
<style type="text/css">
	.st0{opacity:0.2;fill:#006699;enable-background:new    ;}
	.st1{opacity:0.2;fill:#033166;enable-background:new    ;}
	.st2{opacity:0.3;fill:#DFE2E9;enable-background:new    ;}
</style>
<path class="st0" d="M74,208.6c4,0,7.7,2.1,9.7,5.6l60.6,103.9c2,3.5,2,7.8,0,11.3c-2,3.5-5.8,5.6-9.8,5.6l-122.1-0.5
	c-4,0-7.8-2.2-9.8-5.7c-2-3.5-1.9-7.8,0.1-11.3l61.5-103.4C66.3,210.7,70,208.6,74,208.6z M73.9,244.7c-3.8,0-6.8,3-6.8,6.7
	L66.9,283c0,3.7,3,6.8,6.8,6.8c3.8,0,6.8-3,6.8-6.7l0.1-31.6C80.6,247.7,77.6,244.7,73.9,244.7z M82.6,307.8c0-5-4-9-9-9.1
	c-5,0-9.1,4-9.1,9c0,5,4,9,9,9.1C78.6,316.8,82.6,312.8,82.6,307.8z"/>
<path class="st1" d="M203.4,22.3c3.5,4.6,4.3,10.8,2.1,16.2l-66.9,161.8c-2.2,5.5-7.3,9.3-13.1,10c-5.8,0.8-11.6-1.7-15.2-6.4
	L3.3,62.7C-0.2,58-1,51.8,1.3,46.4s7.4-9.2,13.2-9.9l173.9-20.6C194.2,15.2,199.9,17.6,203.4,22.3z M161.5,54
	c-3.3-4.3-9.4-5.2-13.8-1.9l-36.6,27.8c-4.4,3.3-5.2,9.4-1.9,13.8c3.3,4.3,9.4,5.2,13.8,1.9l36.6-27.8C164,64.5,164.8,58.3,161.5,54
	z M96.2,120c5.8-4.4,6.9-12.6,2.5-18.4c-4.4-5.8-12.6-6.9-18.4-2.5c-5.8,4.4-6.9,12.6-2.5,18.4C82.2,123.2,90.4,124.4,96.2,120z"/>
<path class="st2" d="M262.7,5.6c8.3-1.3,16.7,1.9,22,8.5l159.7,196.1c5.4,6.6,6.8,15.6,3.7,23.5c-3,7.9-10.1,13.6-18.5,14.9
	l-253.2,38.9c-8.4,1.3-16.9-2-22.1-8.6c-5.3-6.6-6.6-15.7-3.5-23.5l93.4-235C247.4,12.5,254.4,6.9,262.7,5.6z M274.3,80.6
	c-7.8,1.2-13.1,8.4-11.9,16.2l10.1,65.6c1.2,7.8,8.4,13.1,16.2,11.9c7.8-1.2,13.1-8.4,11.9-16.2l-10.1-65.6
	C289.3,84.7,282.1,79.4,274.3,80.6z M313.2,208.9c-1.6-10.4-11.3-17.5-21.6-15.9c-10.4,1.6-17.5,11.3-15.9,21.6
	c1.6,10.4,11.3,17.5,21.6,15.9C307.7,229,314.8,219.3,313.2,208.9z"/>
</svg>
