<?xml version="1.0" encoding="utf-8"?>
<!-- Generator: Adobe Illustrator 25.0.0, SVG Export Plug-In . SVG Version: 6.00 Build 0)  -->
<svg version="1.1" id="Capa_1" xmlns="http://www.w3.org/2000/svg" xmlns:xlink="http://www.w3.org/1999/xlink" x="0px" y="0px"
	 viewBox="0 0 461.6 350" style="enable-background:new 0 0 461.6 350;" xml:space="preserve">
<style type="text/css">
	.st0{opacity:0.2;fill:#006699;enable-background:new    ;}
	.st1{opacity:0.3;fill:#DFE2E9;enable-background:new    ;}
	.st2{opacity:0.2;fill:#033166;enable-background:new    ;}
</style>
<path class="st0" d="M235.6,271.9c0.8,2,0.1,4.2-1.5,5.6l-10.4,8.9c0.3,1.9,0.4,3.8,0.4,5.7c0,1.9-0.1,3.9-0.4,5.7l10.4,8.9
	c1.7,1.4,2.3,3.6,1.5,5.6c-1.1,2.7-2.3,5.3-3.8,7.8l-1.1,1.8c-1.6,2.5-3.4,4.8-5.3,7.1c-1.4,1.6-3.8,2.2-5.9,1.5l-13.4-4
	c-3.2,2.3-6.8,4.3-10.6,5.7l-3,12.9c-0.5,2.1-2.2,3.7-4.4,4c-3.3,0.5-6.7,0.8-10.2,0.8c-3.5,0-6.9-0.3-10.2-0.8
	c-2.2-0.3-3.9-2-4.4-4l-3-12.9c-3.8-1.5-7.3-3.4-10.6-5.7l-13.3,4c-2.1,0.6-4.5,0.1-5.9-1.5c-1.9-2.2-3.7-4.6-5.3-7.1l-1.1-1.8
	c-1.5-2.5-2.7-5.1-3.8-7.8c-0.8-2-0.1-4.2,1.5-5.6l10.4-8.9c-0.3-1.9-0.4-3.8-0.4-5.8c0-1.9,0.1-3.9,0.4-5.7l-10.4-8.9
	c-1.7-1.4-2.3-3.6-1.5-5.6c1.1-2.7,2.3-5.3,3.8-7.8l1.1-1.8c1.6-2.5,3.4-4.8,5.3-7.1c1.4-1.6,3.8-2.2,5.9-1.5l13.4,4
	c3.2-2.3,6.8-4.3,10.6-5.7l3-12.9c0.5-2.1,2.2-3.7,4.4-4c3.3-0.5,6.7-0.8,10.2-0.8s6.9,0.3,10.2,0.8c2.2,0.3,3.9,2,4.4,4l3,12.9
	c3.8,1.5,7.3,3.4,10.6,5.7l13.4-4c2.1-0.6,4.5-0.1,5.9,1.5c1.9,2.2,3.7,4.6,5.3,7.1l1.1,1.8C233.3,266.6,234.6,269.2,235.6,271.9
	L235.6,271.9z M178.1,310.2c10.6,0,19.2-8.1,19.2-18.1c0-10-8.6-18.1-19.2-18.1c-10.6,0-19.2,8.1-19.2,18.1
	C158.9,302.1,167.5,310.2,178.1,310.2z"/>
<path class="st1" d="M460.7,90.7c1.8,4.7,0.3,10-3.7,13.4l-25,21.5c0.6,4.5,1,9.1,1,13.8s-0.3,9.3-1,13.8l25,21.5
	c4,3.4,5.5,8.7,3.7,13.4c-2.5,6.5-5.6,12.7-9.1,18.7l-2.7,4.4c-3.8,6-8.1,11.7-12.8,17c-3.4,3.9-9.1,5.2-14.2,3.7l-32.2-9.6
	c-7.7,5.6-16.3,10.3-25.4,13.8l-7.2,31.1c-1.2,5-5.2,8.9-10.5,9.7c-8,1.3-16.2,1.9-24.5,1.9s-16.6-0.7-24.5-1.9
	c-5.3-0.8-9.4-4.7-10.5-9.7l-7.2-31.1c-9.1-3.5-17.7-8.2-25.4-13.8l-32.1,9.7c-5.1,1.5-10.7,0.2-14.2-3.7c-4.7-5.3-9-11-12.8-17
	l-2.7-4.4c-3.5-6-6.6-12.2-9.1-18.7c-1.8-4.7-0.3-10,3.7-13.4l25-21.5c-0.6-4.6-1-9.2-1-13.9s0.3-9.3,1-13.8l-25-21.5
	c-4-3.4-5.5-8.7-3.7-13.4c2.5-6.5,5.6-12.7,9.1-18.7l2.7-4.4c3.8-6,8.1-11.7,12.8-17c3.4-3.9,9.1-5.2,14.2-3.7l32.2,9.6
	c7.7-5.6,16.3-10.3,25.4-13.8l7.2-31.1c1.2-5,5.2-8.9,10.5-9.7c8-1.3,16.2-2,24.5-2s16.6,0.7,24.5,1.9c5.3,0.8,9.4,4.7,10.5,9.7
	l7.2,31.1c9.1,3.5,17.7,8.2,25.4,13.8l32.2-9.6c5.1-1.5,10.7-0.2,14.2,3.7c4.7,5.3,9,11,12.8,17l2.7,4.4
	C455.1,78,458.2,84.2,460.7,90.7L460.7,90.7z M322.1,183c25.5,0,46.2-19.5,46.2-43.6s-20.7-43.6-46.2-43.6
	c-25.5,0-46.2,19.5-46.2,43.6S296.6,183,322.1,183z"/>
<path class="st2" d="M188,151.9c0,3.2-2.1,5.9-5.3,7l-19.6,6.8c-0.7,2.8-1.5,5.6-2.6,8.3c-1.1,2.7-2.4,5.4-3.8,7.9l9.7,18.4
	c1.6,2.9,1.3,6.4-0.9,8.7c-3,3.2-6.2,6.2-9.7,8.9l-2.6,2c-3.6,2.6-7.4,5-11.4,7c-2.9,1.5-6.5,1-9.2-1.1l-16.7-13.1
	c-5.8,1.5-11.9,2.3-18.1,2.3l-11.4,16.6c-1.8,2.6-5.1,4-8.4,3.3c-5-1.1-9.9-2.6-14.8-4.5c-4.9-1.9-9.6-4.2-14-6.8
	c-2.9-1.7-4.4-4.9-3.9-8.1l2.9-19.9c-4.5-4.2-8.5-8.9-11.7-14l-21.1-1.7c-3.3-0.3-6.3-2.4-7.4-5.4c-1.5-4.2-2.7-8.5-3.6-12.9
	L4,158.2c-0.7-4.3-1.1-8.7-1-13.1c0-3.2,2.1-5.9,5.3-7l19.6-6.8c0.7-2.8,1.5-5.6,2.6-8.4c1.1-2.7,2.4-5.4,3.8-7.9l-9.7-18.4
	c-1.6-2.9-1.3-6.4,0.9-8.7c3-3.2,6.2-6.2,9.7-8.9l2.6-2c3.6-2.6,7.4-5,11.4-7c2.9-1.5,6.5-1,9.2,1.1l16.7,13.1
	C80.7,82.8,86.8,82,93,82l11.4-16.6c1.8-2.6,5.1-4,8.4-3.3c5,1.1,9.9,2.6,14.9,4.5c4.9,1.9,9.6,4.2,14,6.8c2.9,1.7,4.4,4.9,3.9,8.1
	l-2.9,19.9c4.5,4.2,8.5,8.9,11.7,14l21.1,1.8c3.3,0.3,6.3,2.4,7.4,5.4c1.5,4.2,2.7,8.5,3.6,12.9l0.6,3.2
	C187.7,143.1,188.1,147.5,188,151.9L188,151.9z M85.5,174.1c15,5.9,31.6-0.8,37.2-14.9c5.5-14.1-2.1-30.3-17.1-36.2
	c-15-5.9-31.6,0.8-37.2,14.9C62.8,152,70.5,168.2,85.5,174.1z"/>
</svg>
