<?xml version="1.0" encoding="utf-8"?>
<!-- Generator: Adobe Illustrator 27.2.0, SVG Export Plug-In . SVG Version: 6.00 Build 0)  -->
<svg version="1.1" id="Capa_1" xmlns="http://www.w3.org/2000/svg" xmlns:xlink="http://www.w3.org/1999/xlink" x="0px" y="0px"
	 viewBox="0 0 20 20" style="enable-background:new 0 0 20 20;" xml:space="preserve">
<style type="text/css">
	.st0{fill:#7A8089;}
</style>
<path class="st0" d="M10,0C4.5,0,0,4.5,0,10s4.5,10,10,10s10-4.5,10-10S15.5,0,10,0z M10,18.1c-4.5,0-8.1-3.6-8.1-8.1
	S5.5,1.9,10,1.9s8.1,3.6,8.1,8.1S14.5,18.1,10,18.1z"/>
<path class="st0" d="M14,11.2H6c-0.6,0-1-0.5-1-1.2l0,0c0-0.7,0.4-1.2,1-1.2H14c0.6,0,1,0.5,1,1.2l0,0C15,10.7,14.6,11.2,14,11.2z"
	/>
<path class="st0" d="M11.2,6V14c0,0.6-0.5,1-1.2,1l0,0c-0.7,0-1.2-0.4-1.2-1V6c0-0.6,0.5-1,1.2-1l0,0C10.7,5,11.2,5.4,11.2,6z"/>
</svg>
