<svg viewBox="0 0 12 16" fill="none" xmlns="http://www.w3.org/2000/svg">
<g clip-path="url(#clip0_1308_39075)">
<path d="M2.57143 2H1.71429C1.25963 2 0.823594 2.20345 0.502103 2.56559C0.180612 2.92773 0 3.41889 0 3.93103V14.069C0 14.5811 0.180612 15.0723 0.502103 15.4344C0.823594 15.7966 1.25963 16 1.71429 16H10.2857C10.7404 16 11.1764 15.7966 11.4979 15.4344C11.8194 15.0723 12 14.5811 12 14.069V3.93103C12 3.41889 11.8194 2.92773 11.4979 2.56559C11.1764 2.20345 10.7404 2 10.2857 2H9.42857V2.96552C9.42857 3.2825 9.37315 3.59638 9.26546 3.88924C9.15777 4.18209 8.99993 4.44819 8.80094 4.67233C8.60196 4.89647 8.36573 5.07427 8.10575 5.19557C7.84577 5.31688 7.56712 5.37931 7.28571 5.37931H4.71429C4.14596 5.37931 3.60092 5.125 3.19906 4.67233C2.79719 4.21965 2.57143 3.60569 2.57143 2.96552V2ZM8.44629 9.10041L5.87486 11.997C5.83505 12.0419 5.78775 12.0776 5.73569 12.1019C5.68362 12.1263 5.6278 12.1388 5.57143 12.1388C5.51506 12.1388 5.45924 12.1263 5.40717 12.1019C5.3551 12.0776 5.30781 12.0419 5.268 11.997L3.98229 10.5487C3.90181 10.458 3.8566 10.3351 3.8566 10.2069C3.8566 10.0787 3.90181 9.95575 3.98229 9.8651C4.06276 9.77445 4.17191 9.72353 4.28571 9.72353C4.39952 9.72353 4.50867 9.77445 4.58914 9.8651L5.57143 10.9726L7.83943 8.41683C7.9199 8.32618 8.02905 8.27525 8.14286 8.27525C8.25667 8.27525 8.36581 8.32618 8.44629 8.41683C8.52676 8.50748 8.57197 8.63042 8.57197 8.75862C8.57197 8.88682 8.52676 9.00976 8.44629 9.10041V9.10041Z" fill="#006699"/>
<path d="M4.71443 0C4.37343 0 4.04641 0.158035 3.80529 0.43934C3.56417 0.720644 3.42871 1.10218 3.42871 1.5V2.5C3.42871 2.89782 3.56417 3.27936 3.80529 3.56066C4.04641 3.84196 4.37343 4 4.71443 4H7.28585C7.62685 4 7.95387 3.84196 8.19499 3.56066C8.43611 3.27936 8.57157 2.89782 8.57157 2.5V1.5C8.57157 1.10218 8.43611 0.720644 8.19499 0.43934C7.95387 0.158035 7.62685 0 7.28585 0L4.71443 0ZM7.28585 1C7.39952 1 7.50853 1.05268 7.5889 1.14645C7.66927 1.24021 7.71443 1.36739 7.71443 1.5V2.5C7.71443 2.63261 7.66927 2.75979 7.5889 2.85355C7.50853 2.94732 7.39952 3 7.28585 3H4.71443C4.60076 3 4.49175 2.94732 4.41138 2.85355C4.33101 2.75979 4.28585 2.63261 4.28585 2.5V1.5C4.28585 1.36739 4.33101 1.24021 4.41138 1.14645C4.49175 1.05268 4.60076 1 4.71443 1H7.28585Z" fill="#006699"/>
</g>
<defs>
<clipPath id="clip0_1308_39075">
<rect width="12" height="16" fill="white"/>
</clipPath>
</defs>
</svg>
