<svg viewBox="0 0 12 16" fill="none" xmlns="http://www.w3.org/2000/svg">
<g clip-path="url(#clip0_1308_39088)">
<path d="M4.71443 0C4.37343 0 4.04641 0.158035 3.80529 0.43934C3.56417 0.720644 3.42871 1.10218 3.42871 1.5V2.5C3.42871 2.89782 3.56417 3.27936 3.80529 3.56066C4.04641 3.84196 4.37343 4 4.71443 4H7.28585C7.62685 4 7.95387 3.84196 8.19499 3.56066C8.43611 3.27936 8.57157 2.89782 8.57157 2.5V1.5C8.57157 1.10218 8.43611 0.720644 8.19499 0.43934C7.95387 0.158035 7.62685 0 7.28585 0L4.71443 0ZM7.28585 1C7.39952 1 7.50853 1.05268 7.5889 1.14645C7.66927 1.24021 7.71443 1.36739 7.71443 1.5V2.5C7.71443 2.63261 7.66927 2.75979 7.5889 2.85355C7.50853 2.94732 7.39952 3 7.28585 3H4.71443C4.60076 3 4.49175 2.94732 4.41138 2.85355C4.33101 2.75979 4.28585 2.63261 4.28585 2.5V1.5C4.28585 1.36739 4.33101 1.24021 4.41138 1.14645C4.49175 1.05268 4.60076 1 4.71443 1H7.28585Z" fill="#006699"/>
<path d="M2.57143 2H1.71429C1.25963 2 0.823594 2.20345 0.502103 2.56559C0.180612 2.92773 0 3.41889 0 3.93103V14.069C0 14.5811 0.180612 15.0723 0.502103 15.4344C0.823594 15.7966 1.25963 16 1.71429 16H10.2857C10.7404 16 11.1764 15.7966 11.4979 15.4344C11.8194 15.0723 12 14.5811 12 14.069V3.93103C12 3.41889 11.8194 2.92773 11.4979 2.56559C11.1764 2.20345 10.7404 2 10.2857 2H9.42857V2.96552C9.42857 3.2825 9.37315 3.59638 9.26546 3.88924C9.15777 4.18209 8.99993 4.44819 8.80094 4.67233C8.60196 4.89647 8.36573 5.07427 8.10575 5.19557C7.84577 5.31688 7.56712 5.37931 7.28571 5.37931H4.71429C4.14596 5.37931 3.60092 5.125 3.19906 4.67233C2.79719 4.21965 2.57143 3.60569 2.57143 2.96552V2ZM7.71429 8.27586C7.71429 8.01979 7.80459 7.77421 7.96534 7.59314C8.12608 7.41207 8.3441 7.31034 8.57143 7.31034C8.79876 7.31034 9.01677 7.41207 9.17752 7.59314C9.33827 7.77421 9.42857 8.01979 9.42857 8.27586V13.1034C9.42857 13.3595 9.33827 13.6051 9.17752 13.7862C9.01677 13.9672 8.79876 14.069 8.57143 14.069C8.3441 14.069 8.12608 13.9672 7.96534 13.7862C7.80459 13.6051 7.71429 13.3595 7.71429 13.1034V8.27586ZM2.57143 12.1379C2.57143 11.8819 2.66173 11.6363 2.82248 11.4552C2.98323 11.2741 3.20124 11.1724 3.42857 11.1724C3.6559 11.1724 3.87392 11.2741 4.03466 11.4552C4.19541 11.6363 4.28571 11.8819 4.28571 12.1379V13.1034C4.28571 13.3595 4.19541 13.6051 4.03466 13.7862C3.87392 13.9672 3.6559 14.069 3.42857 14.069C3.20124 14.069 2.98323 13.9672 2.82248 13.7862C2.66173 13.6051 2.57143 13.3595 2.57143 13.1034V12.1379ZM6 9.24138C6.22733 9.24138 6.44535 9.3431 6.60609 9.52417C6.76684 9.70524 6.85714 9.95083 6.85714 10.2069V13.1034C6.85714 13.3595 6.76684 13.6051 6.60609 13.7862C6.44535 13.9672 6.22733 14.069 6 14.069C5.77267 14.069 5.55465 13.9672 5.39391 13.7862C5.23316 13.6051 5.14286 13.3595 5.14286 13.1034V10.2069C5.14286 9.95083 5.23316 9.70524 5.39391 9.52417C5.55465 9.3431 5.77267 9.24138 6 9.24138Z" fill="#006699"/>
</g>
<defs>
<clipPath id="clip0_1308_39088">
<rect width="12" height="16" fill="white"/>
</clipPath>
</defs>
</svg>
