<?xml version="1.0" encoding="utf-8"?>
<!-- Generator: Adobe Illustrator 25.0.0, SVG Export Plug-In . SVG Version: 6.00 Build 0)  -->
<svg version="1.1" id="chart" xmlns="http://www.w3.org/2000/svg" xmlns:xlink="http://www.w3.org/1999/xlink" x="0px" y="0px"
	 viewBox="0 0 497.9 145.5" style="enable-background:new 0 0 497.9 145.5;" xml:space="preserve">
<style type="text/css">
	.st0{fill:#7FC008;}
	.st1{fill:#DB303F;}
	.st2{fill:#006699;}
	.st3{fill:#22A4FB;}
	.st4{fill:#7A8089;}
</style>
<g id="completed">
	<path class="st0" d="M325.6,14.2h128.3v3H325.6c0.1-0.4,0.2-0.9,0.2-1.5C325.8,15.1,325.7,14.5,325.6,14.2z"/>
	<path class="st0" d="M453.5,15.7c0-5.5,4.5-10,10-10s10,4.5,10,10s-4.5,10-10,10S453.5,21.2,453.5,15.7z M468,14
		c0.4-0.4,0.4-1.1,0-1.5s-1.1-0.4-1.5,0l-4.2,4.2l-1.7-1.7c-0.4-0.4-1.1-0.4-1.5,0s-0.4,1.1,0,1.5l2.5,2.5c0.4,0.4,1.1,0.4,1.5,0
		L468,14z"/>
	<path class="st0" d="M441.6,45c-0.1,0.9-0.4,1.6-1,2.2s-1.4,0.8-2.4,0.8c-1.1,0-2-0.4-2.6-1.1s-0.9-1.7-0.9-3v-0.5
		c0-0.8,0.1-1.5,0.4-2.2s0.7-1.1,1.2-1.4s1.2-0.5,1.9-0.5c1,0,1.8,0.3,2.4,0.8s0.9,1.3,1,2.2h-1.8c0-0.6-0.2-1-0.5-1.2
		s-0.7-0.4-1.2-0.4c-0.6,0-1,0.2-1.3,0.6s-0.4,1.1-0.4,2v0.6c0,0.9,0.1,1.6,0.4,2s0.7,0.6,1.3,0.6c0.5,0,0.9-0.1,1.2-0.4
		s0.4-0.6,0.5-1.2h1.8V45z"/>
	<path class="st0" d="M442.4,44.6c0-0.6,0.1-1.2,0.4-1.7s0.6-0.9,1-1.1s1-0.4,1.6-0.4c0.9,0,1.6,0.3,2.1,0.8s0.8,1.2,0.9,2.1v0.4
		c0,1-0.3,1.8-0.8,2.3s-1.3,0.9-2.2,0.9s-1.6-0.3-2.2-0.9S442.4,45.7,442.4,44.6L442.4,44.6z M444.1,44.8c0,0.6,0.1,1.1,0.3,1.4
		c0.2,0.3,0.6,0.5,1,0.5s0.7-0.2,1-0.5c0.2-0.3,0.3-0.8,0.3-1.5c0-0.6-0.1-1-0.3-1.4c-0.2-0.3-0.6-0.5-1-0.5s-0.7,0.2-1,0.5
		C444.2,43.6,444.1,44.1,444.1,44.8z"/>
	<path class="st0" d="M451,41.5l0.1,0.7c0.4-0.6,1.1-0.8,1.8-0.8c0.8,0,1.4,0.3,1.7,1c0.4-0.6,1.1-1,1.9-1c0.7,0,1.2,0.2,1.5,0.6
		s0.5,1,0.5,1.8v4h-1.7v-4c0-0.4-0.1-0.6-0.2-0.8s-0.4-0.2-0.7-0.2c-0.5,0-0.9,0.2-1.1,0.7v4.4h-1.7v-4c0-0.4-0.1-0.6-0.2-0.8
		s-0.4-0.2-0.7-0.2c-0.5,0-0.8,0.2-1,0.6V48h-1.7v-6.3h1.5L451,41.5L451,41.5z"/>
	<path class="st0" d="M465.6,44.8c0,1-0.2,1.8-0.7,2.3s-1,0.9-1.8,0.9c-0.6,0-1.2-0.2-1.6-0.7v3h-1.7v-8.8h1.6l0.1,0.6
		c0.4-0.5,0.9-0.7,1.6-0.7c0.8,0,1.4,0.3,1.8,0.9S465.6,43.7,465.6,44.8L465.6,44.8z M463.9,44.6c0-0.6-0.1-1-0.3-1.4
		s-0.5-0.5-0.9-0.5c-0.5,0-0.9,0.2-1.1,0.6V46c0.2,0.4,0.6,0.6,1.1,0.6C463.5,46.6,463.9,46,463.9,44.6z"/>
	<path class="st0" d="M468.4,47.9h-1.7v-9h1.7V47.9z"/>
	<path class="st0" d="M472.7,48c-0.9,0-1.7-0.3-2.3-0.9s-0.9-1.3-0.9-2.3v-0.2c0-0.6,0.1-1.2,0.4-1.7s0.6-0.9,1-1.2s1-0.4,1.5-0.4
		c0.9,0,1.5,0.3,2,0.8s0.7,1.3,0.7,2.3v0.7h-4c0.1,0.4,0.2,0.7,0.5,1s0.6,0.4,1,0.4c0.7,0,1.2-0.2,1.5-0.7l0.8,0.9
		c-0.3,0.4-0.6,0.6-1,0.8S473.2,48,472.7,48z M472.5,42.8c-0.3,0-0.6,0.1-0.8,0.3c-0.2,0.2-0.3,0.6-0.4,1h2.4V44
		c0-0.4-0.1-0.7-0.3-0.9C473.1,42.9,472.9,42.8,472.5,42.8z"/>
	<path class="st0" d="M478.3,40v1.6h1.1v1.2h-1.1V46c0,0.2,0,0.4,0.1,0.5s0.3,0.2,0.5,0.2s0.4,0,0.5,0V48c-0.3,0.1-0.7,0.2-1,0.2
		c-1.2,0-1.8-0.6-1.8-1.8V43h-0.9v-1.2h0.9V40H478.3z"/>
	<path class="st0" d="M483.2,48c-0.9,0-1.7-0.3-2.3-0.9s-0.9-1.3-0.9-2.3v-0.2c0-0.6,0.1-1.2,0.4-1.7s0.6-0.9,1-1.2s1-0.4,1.5-0.4
		c0.9,0,1.5,0.3,2,0.8s0.7,1.3,0.7,2.3v0.7h-4c0.1,0.4,0.2,0.7,0.5,1s0.6,0.4,1,0.4c0.7,0,1.2-0.2,1.5-0.7l0.8,0.9
		c-0.3,0.4-0.6,0.6-1,0.8S483.8,48,483.2,48z M483,42.8c-0.3,0-0.6,0.1-0.8,0.3c-0.2,0.2-0.3,0.6-0.4,1h2.4V44
		c0-0.4-0.1-0.7-0.3-0.9C483.7,42.9,483.4,42.8,483,42.8z"/>
	<path class="st0" d="M486.5,44.7c0-1,0.2-1.8,0.7-2.4s1-0.9,1.8-0.9c0.6,0,1.1,0.2,1.5,0.7v-3.2h1.7v9h-1.5l-0.1-0.7
		c-0.4,0.5-1,0.8-1.6,0.8c-0.7,0-1.3-0.3-1.8-0.9S486.5,45.7,486.5,44.7z M488.2,44.8c0,0.6,0.1,1.1,0.3,1.4
		c0.2,0.3,0.5,0.5,0.9,0.5c0.5,0,0.9-0.2,1.1-0.7v-2.5c-0.2-0.4-0.6-0.7-1.1-0.7C488.6,42.8,488.2,43.5,488.2,44.8z"/>
</g>
<g id="discarded">
	<path class="st1" d="M305.8,107.7c0-5.5,4.5-10,10-10s10,4.5,10,10s-4.5,10-10,10S305.8,113.2,305.8,107.7z M320.3,106
		c0.4-0.4,0.4-1.1,0-1.5s-1.1-0.4-1.5,0l-4.3,4.2l-1.7-1.7c-0.4-0.4-1.1-0.4-1.5,0s-0.4,1.1,0,1.5l2.5,2.5c0.4,0.4,1.1,0.4,1.5,0
		L320.3,106z"/>
	<path class="st1" d="M187.9,61.7l119.6,44l-1.5,4L187.1,65.5c0.2-0.5,0.4-1.1,0.6-1.8C187.9,62.9,187.9,62.3,187.9,61.7z"/>
	<path class="st1" d="M289.5,139.7v-8.5h2.6c0.8,0,1.4,0.2,2,0.5s1.1,0.8,1.4,1.4s0.5,1.3,0.5,2.1v0.4c0,0.8-0.2,1.5-0.5,2.1
		s-0.8,1.1-1.4,1.4s-1.3,0.5-2,0.5h-2.6V139.7z M291.2,132.6v5.7h0.8c0.7,0,1.2-0.2,1.6-0.7s0.5-1.1,0.6-1.9v-0.5
		c0-0.9-0.2-1.5-0.5-2s-0.9-0.7-1.6-0.7L291.2,132.6L291.2,132.6z"/>
	<path class="st1" d="M297.1,131.7c0-0.3,0.1-0.5,0.3-0.6s0.4-0.2,0.7-0.2c0.3,0,0.5,0.1,0.7,0.2s0.3,0.4,0.3,0.6
		c0,0.3-0.1,0.5-0.3,0.6s-0.4,0.2-0.7,0.2s-0.5-0.1-0.7-0.2S297.1,131.9,297.1,131.7z M298.9,139.7h-1.7v-6.3h1.7V139.7z"/>
	<path class="st1" d="M303.8,137.9c0-0.2-0.1-0.4-0.3-0.5s-0.5-0.2-1-0.3c-1.5-0.3-2.3-1-2.3-1.9c0-0.6,0.2-1,0.7-1.4
		s1.1-0.6,1.8-0.6c0.8,0,1.4,0.2,1.9,0.6s0.7,0.9,0.7,1.5h-1.7c0-0.2-0.1-0.4-0.2-0.6s-0.4-0.2-0.7-0.2c-0.3,0-0.5,0.1-0.7,0.2
		s-0.2,0.3-0.2,0.5s0.1,0.3,0.3,0.5s0.5,0.2,0.9,0.3s0.8,0.2,1.1,0.3c0.9,0.3,1.3,0.9,1.3,1.7c0,0.6-0.2,1-0.7,1.4s-1.1,0.5-1.9,0.5
		c-0.5,0-1-0.1-1.4-0.3s-0.7-0.4-1-0.8s-0.4-0.7-0.4-1.1h1.6c0,0.3,0.1,0.5,0.3,0.7s0.5,0.2,0.8,0.2s0.6-0.1,0.7-0.2
		S303.8,138.1,303.8,137.9z"/>
	<path class="st1" d="M309.1,138.4c0.3,0,0.6-0.1,0.8-0.3s0.3-0.4,0.3-0.7h1.6c0,0.4-0.1,0.8-0.4,1.2s-0.5,0.6-0.9,0.8
		s-0.8,0.3-1.3,0.3c-0.9,0-1.6-0.3-2.1-0.9s-0.8-1.4-0.8-2.4v-0.1c0-1,0.3-1.8,0.8-2.3s1.2-0.9,2.1-0.9c0.8,0,1.4,0.2,1.9,0.7
		s0.7,1.1,0.7,1.8h-1.6c0-0.3-0.1-0.6-0.3-0.8s-0.5-0.3-0.8-0.3c-0.4,0-0.7,0.1-0.9,0.4c-0.2,0.3-0.3,0.8-0.3,1.4v0.2
		c0,0.7,0.1,1.1,0.3,1.4C308.4,138.3,308.7,138.4,309.1,138.4z"/>
	<path class="st1" d="M316.4,139.7c-0.1-0.2-0.1-0.3-0.2-0.6c-0.4,0.5-0.9,0.7-1.6,0.7c-0.6,0-1.1-0.2-1.5-0.5s-0.6-0.8-0.6-1.4
		c0-0.7,0.2-1.2,0.7-1.5s1.2-0.5,2.2-0.5h0.8v-0.4c0-0.3-0.1-0.5-0.2-0.7s-0.4-0.3-0.7-0.3c-0.3,0-0.5,0.1-0.7,0.2s-0.2,0.3-0.2,0.6
		h-1.7c0-0.4,0.1-0.7,0.3-1s0.5-0.6,1-0.7s0.9-0.3,1.4-0.3c0.8,0,1.4,0.2,1.9,0.6s0.7,0.9,0.7,1.7v2.7c0,0.6,0.1,1.1,0.3,1.4v0.1
		h-1.9L316.4,139.7L316.4,139.7z M315,138.5c0.2,0,0.5-0.1,0.7-0.2s0.4-0.3,0.5-0.4v-1.1h-0.6c-0.8,0-1.3,0.3-1.4,0.9v0.1
		c0,0.2,0.1,0.4,0.2,0.5S314.8,138.5,315,138.5z"/>
	<path class="st1" d="M322.7,134.9c-0.2,0-0.4,0-0.6,0c-0.6,0-1.1,0.2-1.3,0.7v4.1h-1.7v-6.3h1.6v0.8c0.3-0.6,0.8-0.9,1.4-0.9
		c0.2,0,0.4,0,0.5,0.1L322.7,134.9z"/>
	<path class="st1" d="M323.2,136.5c0-1,0.2-1.8,0.7-2.4s1-0.9,1.8-0.9c0.6,0,1.1,0.2,1.5,0.7v-3.2h1.7v9h-1.5l-0.1-0.7
		c-0.4,0.5-1,0.8-1.6,0.8c-0.7,0-1.3-0.3-1.8-0.9S323.2,137.5,323.2,136.5z M324.9,136.6c0,0.6,0.1,1.1,0.3,1.4
		c0.2,0.3,0.5,0.5,0.9,0.5c0.5,0,0.9-0.2,1.1-0.7v-2.5c-0.2-0.4-0.6-0.7-1.1-0.7C325.3,134.6,324.9,135.3,324.9,136.6z"/>
	<path class="st1" d="M333.1,139.8c-0.9,0-1.7-0.3-2.3-0.9s-0.9-1.3-0.9-2.3v-0.2c0-0.6,0.1-1.2,0.4-1.7s0.6-0.9,1-1.2
		s1-0.4,1.5-0.4c0.9,0,1.5,0.3,2,0.8s0.7,1.3,0.7,2.3v0.7h-4c0.1,0.4,0.2,0.7,0.5,1s0.6,0.4,1,0.4c0.7,0,1.2-0.2,1.5-0.7l0.8,0.9
		c-0.3,0.4-0.6,0.6-1,0.8S333.7,139.8,333.1,139.8z M332.9,134.6c-0.3,0-0.6,0.1-0.8,0.3s-0.3,0.6-0.4,1h2.4v-0.1
		c0-0.4-0.1-0.7-0.3-0.9S333.3,134.6,332.9,134.6z"/>
	<path class="st1" d="M336.4,136.5c0-1,0.2-1.8,0.7-2.4s1-0.9,1.8-0.9c0.6,0,1.1,0.2,1.5,0.7v-3.2h1.7v9h-1.5l-0.1-0.7
		c-0.4,0.5-1,0.8-1.6,0.8c-0.7,0-1.3-0.3-1.8-0.9S336.4,137.5,336.4,136.5z M338.1,136.6c0,0.6,0.1,1.1,0.3,1.4
		c0.2,0.3,0.5,0.5,0.9,0.5c0.5,0,0.9-0.2,1.1-0.7v-2.5c-0.2-0.4-0.6-0.7-1.1-0.7C338.5,134.6,338.1,135.3,338.1,136.6z"/>
</g>
<g id="progress">
	<path class="st2" d="M305.8,15.7c0-5.5,4.5-10,10-10s10,4.5,10,10s-4.5,10-10,10S305.8,21.2,305.8,15.7z M320.3,14
		c0.4-0.4,0.4-1.1,0-1.5s-1.1-0.4-1.5,0l-4.2,4.2l-1.7-1.7c-0.4-0.4-1.1-0.4-1.5,0s-0.4,1.1,0,1.5l2.5,2.5c0.4,0.4,1.1,0.4,1.5,0
		L320.3,14z"/>
	<path class="st2" d="M187,57.5l119-43.8l1.5,4l-119.6,44c0-0.6,0-1.2-0.2-2C187.5,58.8,187.2,58.1,187,57.5z"/>
	<path class="st2" d="M287.3,47.9h-1.8v-8.5h1.8V47.9z"/>
	<path class="st2" d="M290.4,41.5l0.1,0.7c0.5-0.6,1.1-0.8,1.8-0.8c0.7,0,1.2,0.2,1.5,0.6s0.5,1,0.5,1.8v4.1h-1.7v-4.1
		c0-0.4-0.1-0.6-0.2-0.8s-0.4-0.2-0.8-0.2c-0.5,0-0.8,0.2-1.1,0.6v4.5h-1.7v-6.3L290.4,41.5L290.4,41.5z"/>
	<path class="st2" d="M300.4,44.9v3h-1.8v-8.5h3.3c0.6,0,1.2,0.1,1.7,0.4s0.9,0.6,1.1,1s0.4,0.9,0.4,1.5c0,0.8-0.3,1.5-0.9,2
		s-1.4,0.7-2.4,0.7h-1.4L300.4,44.9L300.4,44.9z M300.4,43.4h1.6c0.5,0,0.8-0.1,1.1-0.3s0.4-0.5,0.4-0.9s-0.1-0.8-0.4-1
		s-0.6-0.4-1-0.4h-1.6v2.6C300.5,43.4,300.4,43.4,300.4,43.4z"/>
	<path class="st2" d="M309.8,43.1c-0.2,0-0.4,0-0.6,0c-0.6,0-1.1,0.2-1.3,0.7v4.1h-1.7v-6.3h1.6v0.8c0.3-0.6,0.8-0.9,1.4-0.9
		c0.2,0,0.4,0,0.5,0.1L309.8,43.1z"/>
	<path class="st2" d="M310.2,44.6c0-0.6,0.1-1.2,0.4-1.7s0.6-0.9,1-1.1s1-0.4,1.6-0.4c0.9,0,1.6,0.3,2.1,0.8s0.8,1.2,0.9,2.1v0.4
		c0,1-0.3,1.8-0.8,2.3s-1.3,0.9-2.2,0.9s-1.6-0.3-2.2-0.9S310.2,45.7,310.2,44.6L310.2,44.6z M311.9,44.8c0,0.6,0.1,1.1,0.3,1.4
		c0.2,0.3,0.6,0.5,1,0.5s0.7-0.2,1-0.5c0.2-0.3,0.3-0.8,0.3-1.5c0-0.6-0.1-1-0.3-1.4c-0.2-0.3-0.6-0.5-1-0.5s-0.7,0.2-1,0.5
		C312,43.6,311.9,44.1,311.9,44.8z"/>
	<path class="st2" d="M317,44.7c0-1,0.2-1.8,0.7-2.3s1.1-0.9,1.9-0.9c0.7,0,1.2,0.2,1.6,0.7l0.1-0.6h1.5v6.1c0,0.6-0.1,1-0.4,1.4
		s-0.6,0.7-1.1,0.9s-1,0.3-1.6,0.3c-0.5,0-0.9-0.1-1.4-0.3s-0.8-0.4-1-0.7l0.8-1c0.4,0.5,0.9,0.7,1.5,0.7c0.4,0,0.8-0.1,1-0.4
		s0.4-0.6,0.4-1v-0.3c-0.4,0.4-0.9,0.7-1.5,0.7c-0.8,0-1.4-0.3-1.8-0.9S317,45.7,317,44.7L317,44.7z M318.7,44.8
		c0,0.6,0.1,1,0.3,1.4c0.2,0.3,0.5,0.5,0.9,0.5c0.5,0,0.9-0.2,1.1-0.6v-2.7c-0.2-0.4-0.6-0.6-1.1-0.6c-0.4,0-0.7,0.2-1,0.5
		C318.8,43.6,318.7,44.1,318.7,44.8z"/>
	<path class="st2" d="M327.6,43.1c-0.2,0-0.4,0-0.6,0c-0.6,0-1.1,0.2-1.3,0.7v4.1H324v-6.3h1.6v0.8c0.3-0.6,0.8-0.9,1.4-0.9
		c0.2,0,0.4,0,0.5,0.1L327.6,43.1z"/>
	<path class="st2" d="M331.2,48c-0.9,0-1.7-0.3-2.3-0.9s-0.9-1.3-0.9-2.3v-0.2c0-0.6,0.1-1.2,0.4-1.7s0.6-0.9,1-1.2s1-0.4,1.5-0.4
		c0.9,0,1.5,0.3,2,0.8s0.7,1.3,0.7,2.3v0.7h-4c0.1,0.4,0.2,0.7,0.5,1s0.6,0.4,1,0.4c0.7,0,1.2-0.2,1.5-0.7l0.8,0.9
		c-0.3,0.4-0.6,0.6-1,0.8S331.8,48,331.2,48z M331,42.8c-0.3,0-0.6,0.1-0.8,0.3s-0.3,0.6-0.4,1h2.4V44c0-0.4-0.1-0.7-0.3-0.9
		S331.4,42.8,331,42.8z"/>
	<path class="st2" d="M338.2,46.1c0-0.2-0.1-0.4-0.3-0.5s-0.5-0.2-1-0.3c-1.5-0.3-2.3-1-2.3-1.9c0-0.6,0.2-1,0.7-1.4
		s1.1-0.6,1.8-0.6c0.8,0,1.4,0.2,1.9,0.6s0.7,0.9,0.7,1.5H338c0-0.2-0.1-0.4-0.2-0.6s-0.4-0.2-0.7-0.2c-0.3,0-0.5,0.1-0.7,0.2
		s-0.2,0.3-0.2,0.5s0.1,0.3,0.3,0.5s0.5,0.2,0.9,0.3s0.8,0.2,1.1,0.3c0.9,0.3,1.3,0.9,1.3,1.7c0,0.6-0.2,1-0.7,1.4S338,48,337.2,48
		c-0.5,0-1-0.1-1.4-0.3s-0.7-0.4-1-0.8s-0.4-0.7-0.4-1.1h1.6c0,0.3,0.1,0.5,0.3,0.7s0.5,0.2,0.8,0.2s0.6-0.1,0.7-0.2
		S338.2,46.3,338.2,46.1z"/>
	<path class="st2" d="M344.4,46.1c0-0.2-0.1-0.4-0.3-0.5s-0.5-0.2-1-0.3c-1.5-0.3-2.3-1-2.3-1.9c0-0.6,0.2-1,0.7-1.4
		s1.1-0.6,1.8-0.6c0.8,0,1.4,0.2,1.9,0.6s0.7,0.9,0.7,1.5h-1.7c0-0.2-0.1-0.4-0.2-0.6s-0.4-0.2-0.7-0.2c-0.3,0-0.5,0.1-0.7,0.2
		s-0.2,0.3-0.2,0.5s0.1,0.3,0.3,0.5s0.5,0.2,0.9,0.3s0.8,0.2,1.1,0.3c0.9,0.3,1.3,0.9,1.3,1.7c0,0.6-0.2,1-0.7,1.4s-1.1,0.5-1.9,0.5
		c-0.5,0-1-0.1-1.4-0.3s-0.7-0.4-1-0.8s-0.4-0.7-0.4-1.1h1.6c0,0.3,0.1,0.5,0.3,0.7s0.5,0.2,0.8,0.2s0.6-0.1,0.7-0.2
		S344.4,46.3,344.4,46.1z"/>
</g>
<g id="ready">
	<path class="st3" d="M39.8,59.7h130.7v4H39.8c0.1-0.5,0.2-1.2,0.2-2S39.9,60.2,39.8,59.7z"/>
	<path class="st3" d="M167.9,61.7c0-5.5,4.5-10,10-10s10,4.5,10,10s-4.5,10-10,10S167.9,67.2,167.9,61.7z M182.4,60
		c0.4-0.4,0.4-1.1,0-1.5s-1.1-0.4-1.5,0l-4.2,4.2L175,61c-0.4-0.4-1.1-0.4-1.5,0s-0.4,1.1,0,1.5L176,65c0.4,0.4,1.1,0.4,1.5,0
		L182.4,60z"/>
	<path class="st3" d="M146.5,90.7h-1.4v3.1h-1.8v-8.5h3.2c1,0,1.8,0.2,2.3,0.7s0.8,1.1,0.8,1.9c0,0.6-0.1,1.1-0.4,1.5
		s-0.6,0.7-1.1,0.9l1.8,3.5v0.1H148L146.5,90.7z M145.1,89.3h1.4c0.4,0,0.8-0.1,1-0.3s0.4-0.5,0.4-0.9s-0.1-0.7-0.3-0.9
		s-0.6-0.3-1.1-0.3h-1.4L145.1,89.3L145.1,89.3z"/>
	<path class="st3" d="M153.8,94c-0.9,0-1.7-0.3-2.3-0.9s-0.9-1.3-0.9-2.3v-0.2c0-0.6,0.1-1.2,0.4-1.7s0.6-0.9,1-1.2s1-0.4,1.5-0.4
		c0.9,0,1.5,0.3,2,0.8s0.7,1.3,0.7,2.3v0.7h-4c0.1,0.4,0.2,0.7,0.5,1s0.6,0.4,1,0.4c0.7,0,1.2-0.2,1.5-0.7l0.8,0.9
		c-0.3,0.4-0.6,0.6-1,0.8S154.4,94,153.8,94z M153.7,88.8c-0.3,0-0.6,0.1-0.8,0.3s-0.3,0.6-0.4,1h2.4V90c0-0.4-0.1-0.7-0.3-0.9
		S154,88.8,153.7,88.8z"/>
	<path class="st3" d="M161.1,93.9c-0.1-0.2-0.1-0.3-0.2-0.6c-0.4,0.5-0.9,0.7-1.6,0.7c-0.6,0-1.1-0.2-1.5-0.5s-0.6-0.8-0.6-1.4
		c0-0.7,0.2-1.2,0.7-1.5s1.2-0.5,2.2-0.5h0.8v-0.4c0-0.3-0.1-0.5-0.2-0.7s-0.4-0.3-0.7-0.3s-0.5,0.1-0.7,0.2s-0.2,0.3-0.2,0.6h-1.7
		c0-0.4,0.1-0.7,0.3-1s0.5-0.6,1-0.7s0.9-0.3,1.4-0.3c0.8,0,1.4,0.2,1.9,0.6s0.7,0.9,0.7,1.7v2.7c0,0.6,0.1,1.1,0.3,1.4V94
		L161.1,93.9L161.1,93.9z M159.7,92.7c0.2,0,0.5-0.1,0.7-0.2s0.4-0.3,0.5-0.4V91h-0.6c-0.8,0-1.3,0.3-1.4,0.9V92
		c0,0.2,0.1,0.4,0.2,0.5S159.4,92.7,159.7,92.7z"/>
	<path class="st3" d="M163.6,90.7c0-1,0.2-1.8,0.7-2.4s1-0.9,1.8-0.9c0.6,0,1.1,0.2,1.5,0.7v-3.2h1.7v9h-1.5l-0.1-0.7
		c-0.4,0.5-1,0.8-1.6,0.8c-0.7,0-1.3-0.3-1.8-0.9S163.6,91.7,163.6,90.7z M165.3,90.8c0,0.6,0.1,1.1,0.3,1.4s0.5,0.5,0.9,0.5
		c0.5,0,0.9-0.2,1.1-0.7v-2.5c-0.2-0.4-0.6-0.7-1.1-0.7C165.7,88.8,165.3,89.5,165.3,90.8z"/>
	<path class="st3" d="M173,91.5l1.2-3.9h1.8l-2.5,7.3l-0.1,0.3c-0.4,0.8-1,1.2-1.9,1.2c-0.2,0-0.5,0-0.8-0.1V95h0.3
		c0.3,0,0.6,0,0.7-0.1s0.3-0.3,0.4-0.5l0.2-0.5l-2.2-6.4h1.8L173,91.5z"/>
	<path class="st3" d="M181.6,86v1.6h1.1v1.2h-1.1V92c0,0.2,0,0.4,0.1,0.5s0.3,0.2,0.5,0.2s0.4,0,0.5,0V94c-0.3,0.1-0.7,0.2-1,0.2
		c-1.2,0-1.8-0.6-1.8-1.8V89H179v-1.2h0.9V86H181.6z"/>
	<path class="st3" d="M183.2,90.6c0-0.6,0.1-1.2,0.4-1.7s0.6-0.9,1-1.1s1-0.4,1.6-0.4c0.9,0,1.6,0.3,2.1,0.8s0.8,1.2,0.9,2.1v0.4
		c0,1-0.3,1.8-0.8,2.3s-1.3,0.9-2.2,0.9s-1.6-0.3-2.2-0.9S183.2,91.7,183.2,90.6L183.2,90.6z M184.9,90.8c0,0.6,0.1,1.1,0.3,1.4
		s0.6,0.5,1,0.5s0.7-0.2,1-0.5c0.2-0.3,0.3-0.8,0.3-1.5c0-0.6-0.1-1-0.3-1.4c-0.2-0.3-0.6-0.5-1-0.5s-0.7,0.2-1,0.5
		C185,89.6,184.9,90.1,184.9,90.8z"/>
	<path class="st3" d="M199.8,85.3V91c0,0.9-0.3,1.7-0.9,2.2s-1.4,0.8-2.4,0.8s-1.8-0.3-2.4-0.8s-0.9-1.3-0.9-2.2v-5.7h1.8V91
		c0,0.6,0.1,1,0.4,1.2s0.6,0.4,1.1,0.4c1,0,1.5-0.5,1.5-1.6v-5.7H199.8z"/>
	<path class="st3" d="M204.6,92.1c0-0.2-0.1-0.4-0.3-0.5s-0.5-0.2-1-0.3c-1.5-0.3-2.3-1-2.3-1.9c0-0.6,0.2-1,0.7-1.4
		s1.1-0.6,1.8-0.6c0.8,0,1.4,0.2,1.9,0.6s0.7,0.9,0.7,1.5h-1.7c0-0.2-0.1-0.4-0.2-0.6s-0.4-0.2-0.7-0.2s-0.5,0.1-0.7,0.2
		s-0.2,0.3-0.2,0.5s0.1,0.3,0.3,0.5s0.5,0.2,0.9,0.3s0.8,0.2,1.1,0.3c0.9,0.3,1.3,0.9,1.3,1.7c0,0.6-0.2,1-0.7,1.4s-1.1,0.5-1.9,0.5
		c-0.5,0-1-0.1-1.4-0.3s-0.7-0.4-1-0.8s-0.4-0.7-0.4-1.1h1.6c0,0.3,0.1,0.5,0.3,0.7s0.5,0.2,0.8,0.2s0.6-0.1,0.7-0.2
		S204.6,92.3,204.6,92.1z"/>
	<path class="st3" d="M210.3,94c-0.9,0-1.7-0.3-2.3-0.9s-0.9-1.3-0.9-2.3v-0.2c0-0.6,0.1-1.2,0.4-1.7s0.6-0.9,1-1.2s1-0.4,1.5-0.4
		c0.9,0,1.5,0.3,2,0.8s0.7,1.3,0.7,2.3v0.7h-4c0.1,0.4,0.2,0.7,0.5,1s0.6,0.4,1,0.4c0.7,0,1.2-0.2,1.5-0.7l0.8,0.9
		c-0.3,0.4-0.6,0.6-1,0.8S210.8,94,210.3,94z M210.1,88.8c-0.3,0-0.6,0.1-0.8,0.3s-0.3,0.6-0.4,1h2.4V90c0-0.4-0.1-0.7-0.3-0.9
		S210.4,88.8,210.1,88.8z"/>
</g>
<g id="incoming">
	<path class="st4" d="M20,61.7c0-5.5,4.5-10,10-10s10,4.5,10,10s-4.5,10-10,10S20,67.2,20,61.7z M34.5,60c0.4-0.4,0.4-1.1,0-1.5
		s-1.1-0.4-1.5,0l-4.3,4.2L27,61c-0.4-0.4-1.1-0.4-1.5,0s-0.4,1.1,0,1.5L28,65c0.4,0.4,1.1,0.4,1.5,0L34.5,60z"/>
	<path class="st4" d="M7.4,93.9H5.7v-8.5h1.8L7.4,93.9L7.4,93.9z"/>
	<path class="st4" d="M10.5,87.5l0.1,0.7c0.5-0.6,1.1-0.8,1.8-0.8s1.2,0.2,1.5,0.6s0.5,1,0.5,1.8v4.1h-1.7v-4.1
		c0-0.4-0.1-0.6-0.2-0.8s-0.4-0.2-0.8-0.2c-0.5,0-0.8,0.2-1.1,0.6v4.5H8.9v-6.3L10.5,87.5L10.5,87.5z"/>
	<path class="st4" d="M18.3,92.6c0.3,0,0.6-0.1,0.8-0.3s0.3-0.4,0.3-0.7H21c0,0.4-0.1,0.8-0.4,1.2s-0.5,0.6-0.9,0.8S18.8,94,18.3,94
		c-0.9,0-1.6-0.3-2.1-0.9s-0.8-1.4-0.8-2.4v-0.1c0-1,0.3-1.8,0.8-2.3c0.5-0.6,1.2-0.9,2.1-0.9c0.8,0,1.4,0.2,1.9,0.7
		s0.7,1.1,0.7,1.8h-1.6c0-0.3-0.1-0.6-0.3-0.8s-0.5-0.3-0.8-0.3c-0.4,0-0.7,0.1-0.9,0.4C17.1,89.5,17,90,17,90.6v0.2
		c0,0.7,0.1,1.1,0.3,1.4C17.6,92.5,17.9,92.6,18.3,92.6z"/>
	<path class="st4" d="M21.7,90.6c0-0.6,0.1-1.2,0.4-1.7s0.6-0.9,1-1.1s1-0.4,1.6-0.4c0.9,0,1.6,0.3,2.1,0.8s0.8,1.2,0.9,2.1v0.4
		c0,1-0.3,1.8-0.8,2.3s-1.3,1-2.2,1s-1.6-0.3-2.2-0.9S21.7,91.7,21.7,90.6L21.7,90.6z M23.4,90.8c0,0.6,0.1,1.1,0.3,1.4
		c0.2,0.3,0.6,0.5,1,0.5s0.7-0.2,1-0.5c0.2-0.3,0.3-0.8,0.3-1.5c0-0.6-0.1-1-0.3-1.4c-0.2-0.3-0.6-0.5-1-0.5s-0.7,0.2-1,0.5
		C23.5,89.6,23.4,90.1,23.4,90.8z"/>
	<path class="st4" d="M30.3,87.5l0.1,0.7c0.4-0.6,1.1-0.8,1.8-0.8c0.8,0,1.4,0.3,1.7,1c0.4-0.6,1.1-1,1.9-1c0.7,0,1.2,0.2,1.5,0.6
		s0.5,1,0.5,1.8v4h-1.7v-4c0-0.4-0.1-0.6-0.2-0.8s-0.4-0.2-0.7-0.2c-0.5,0-0.9,0.2-1.1,0.7v4.4h-1.7v-4c0-0.4-0.1-0.6-0.2-0.8
		s-0.4-0.2-0.7-0.2c-0.5,0-0.8,0.2-1,0.6V94h-1.7v-6.3h1.5V87.5z"/>
	<path class="st4" d="M39.1,85.9c0-0.3,0.1-0.5,0.3-0.6S39.7,85,40,85s0.5,0.1,0.7,0.2s0.3,0.4,0.3,0.6c0,0.3-0.1,0.5-0.3,0.6
		s-0.4,0.2-0.7,0.2s-0.5-0.1-0.7-0.2S39.1,86.1,39.1,85.9z M40.9,93.9h-1.7v-6.3h1.7V93.9z"/>
	<path class="st4" d="M43.8,87.5l0.1,0.7c0.5-0.6,1.1-0.8,1.8-0.8s1.2,0.2,1.5,0.6s0.5,1,0.5,1.8v4.1H46v-4.1c0-0.4-0.1-0.6-0.2-0.8
		s-0.4-0.2-0.8-0.2c-0.5,0-0.8,0.2-1.1,0.6v4.5h-1.7v-6.3L43.8,87.5L43.8,87.5z"/>
	<path class="st4" d="M48.8,90.7c0-1,0.2-1.8,0.7-2.3s1.1-0.9,1.9-0.9c0.7,0,1.2,0.2,1.6,0.7l0.1-0.6h1.5v6.1c0,0.6-0.1,1-0.4,1.4
		s-0.6,0.7-1.1,0.9s-1,0.3-1.6,0.3c-0.5,0-0.9-0.1-1.4-0.3s-0.8-0.4-1-0.7l0.8-1c0.4,0.5,0.9,0.7,1.5,0.7c0.4,0,0.8-0.1,1-0.4
		s0.4-0.6,0.4-1v-0.3c-0.4,0.4-0.9,0.7-1.5,0.7c-0.8,0-1.4-0.3-1.8-0.9S48.8,91.7,48.8,90.7L48.8,90.7z M50.4,90.8
		c0,0.6,0.1,1,0.3,1.4c0.2,0.3,0.5,0.5,0.9,0.5c0.5,0,0.9-0.2,1.1-0.6v-2.7c-0.2-0.4-0.6-0.6-1.1-0.6c-0.4,0-0.7,0.2-1,0.5
		C50.6,89.6,50.4,90.1,50.4,90.8z"/>
</g>
</svg>
