<?xml version="1.0" encoding="utf-8"?>
<!-- Generator: Adobe Illustrator 27.2.0, SVG Export Plug-In . SVG Version: 6.00 Build 0)  -->
<svg version="1.1" id="Capa_1" xmlns="http://www.w3.org/2000/svg" xmlns:xlink="http://www.w3.org/1999/xlink" x="0px" y="0px"
	 viewBox="0 0 20 20" style="enable-background:new 0 0 20 20;" xml:space="preserve">
<style type="text/css">
	.st0{fill:#7A8089;}
</style>
<path class="st0" d="M1.2,6.2h2.9c0,0,2,0,2.7,0.9c0.9,1,1.9,1.9,2.9,2.8c-1.2,1.3-2.4,2.4-3.5,3.6c-0.2,0.2-0.4,0.2-0.7,0.3
	c-0.4,0-0.7,0-1.1,0c0,0-3.2,0-3.2,0C0.6,13.8,0,14.3,0,15c0,0.7,0.6,1.2,1.2,1.2h3.1c0.1,0,0.5,0,0.6,0c1.3,0,2.4-0.4,3.3-1.4
	c1.1-1.1,2.2-2.2,3.3-3.3c0.2-0.2,0.5-0.3,0.8-0.3c0.9,0,1.8,0,2.7,0v0v1.2c0,0.5,0.3,1,0.8,1.2s1,0.1,1.4-0.3l2.5-2.5
	c0.5-0.5,0.5-1.3,0-1.8l-2.5-2.5c-0.4-0.4-0.9-0.5-1.4-0.3C15.3,6.5,15,7,15,7.5v1.3v0c-0.9,0-1.8,0-2.7,0c-0.3,0-0.6-0.1-0.7-0.3
	c-1.2-1.2-2.4-2.3-3.5-3.5c-0.6-0.6-1.3-1-2.1-1.1c-0.5-0.1-1-0.1-1.5-0.1c0,0-3.2,0-3.2,0C0.6,3.7,0,4.3,0,5S0.6,6.2,1.2,6.2z"/>
</svg>
