<?xml version="1.0" encoding="utf-8"?>
<!-- Generator: Adobe Illustrator 27.2.0, SVG Export Plug-In . SVG Version: 6.00 Build 0)  -->
<svg version="1.1" id="Capa_1" xmlns="http://www.w3.org/2000/svg" xmlns:xlink="http://www.w3.org/1999/xlink" x="0px" y="0px"
	 viewBox="0 0 389.2 267.9" style="enable-background:new 0 0 389.2 267.9;" xml:space="preserve">
<style type="text/css">
	.st0{fill:#0E4096;}
	.st1{fill:#FFFFFF;}
	.st2{fill:none;stroke:#FFFFFF;stroke-width:1.16;stroke-linejoin:round;stroke-miterlimit:13.3333;}
	.st3{fill:#009D81;}
	.st4{fill:none;stroke:#0E4096;stroke-width:0.5907;stroke-miterlimit:5.152;}
	.st5{fill:none;stroke:#009D81;stroke-width:1.1533;stroke-miterlimit:5.152;}
	.st6{fill:none;stroke:#0E4096;stroke-width:1.1533;stroke-miterlimit:5.152;}
	.st7{fill:none;stroke:#0E4096;stroke-width:0.28;stroke-miterlimit:5.152;}
</style>
<path id="path158" class="st0" d="M351.6,230c1.4,0,2.6,0.7,3.7,2s2,3.5,2.8,6.5c0.7,3,1.1,6.5,1.1,10.5c0,4-0.4,7.5-1.1,10.4
	s-1.7,5.1-2.8,6.4c-1.1,1.3-2.4,2-3.8,2c-2.1,0-3.8-1.5-5.1-4.4c-1.7-3.7-2.5-8.4-2.5-14.3c0-4.1,0.4-7.7,1.1-10.6
	c0.7-3,1.7-5.1,2.8-6.5C348.9,230.7,350.2,230,351.6,230 M353.6,249.9c0-7.6-0.2-12.6-0.7-14.9c-0.3-1.7-0.8-2.6-1.4-2.6
	c-0.7,0-1.2,1.2-1.6,3.7c-0.3,2.5-0.5,7.2-0.5,14.3c0,5.9,0.2,10.1,0.7,12.6c0.3,1.5,0.7,2.3,1.3,2.3c0.4,0,0.7-0.3,1-1
	s0.5-2.2,0.7-4.4C353.5,256.8,353.6,253.5,353.6,249.9"/>
<path id="path160" class="st0" d="M381.6,230.1c1.4,0,2.6,0.7,3.7,2s2,3.5,2.8,6.5c0.7,3,1.1,6.5,1.1,10.5c0,4-0.4,7.5-1.1,10.4
	c-0.7,2.9-1.7,5.1-2.8,6.4c-1.1,1.3-2.4,2-3.8,2c-2.1,0-3.8-1.5-5.1-4.4c-1.7-3.7-2.5-8.4-2.5-14.2c0-4.1,0.4-7.7,1.1-10.6
	c0.7-3,1.7-5.1,2.8-6.5C378.9,230.8,380.2,230.1,381.6,230.1 M383.6,250.1c0-7.6-0.2-12.6-0.7-14.9c-0.3-1.7-0.8-2.6-1.4-2.6
	c-0.7,0-1.2,1.2-1.6,3.7c-0.3,2.5-0.5,7.2-0.5,14.3c0,5.9,0.2,10.1,0.7,12.6c0.3,1.5,0.7,2.3,1.3,2.3c0.4,0,0.7-0.3,1-1
	s0.5-2.2,0.7-4.4C383.5,256.9,383.6,253.6,383.6,250.1"/>
<path id="path162" class="st0" d="M321.5,230c1.3,0,2.6,0.7,3.7,2s2,3.5,2.8,6.5c0.7,3,1.1,6.5,1.1,10.5c0,4-0.4,7.5-1.1,10.4
	s-1.7,5.1-2.8,6.4c-1.1,1.3-2.4,2-3.8,2c-2.1,0-3.8-1.5-5.1-4.4c-1.7-3.7-2.5-8.4-2.5-14.3c0-4.1,0.4-7.7,1.1-10.6
	c0.7-3,1.7-5.1,2.8-6.5C318.8,230.7,320,230,321.5,230 M323.4,249.9c0-7.6-0.2-12.6-0.7-14.9c-0.3-1.7-0.8-2.6-1.4-2.6
	c-0.7,0-1.2,1.2-1.6,3.7c-0.3,2.5-0.5,7.2-0.5,14.3c0,5.9,0.2,10.1,0.7,12.6c0.3,1.5,0.7,2.3,1.3,2.3c0.4,0,0.7-0.4,1-1
	c0.3-0.7,0.5-2.2,0.7-4.4C323.3,256.8,323.4,253.5,323.4,249.9"/>
<path id="path164" class="st1" d="M24,31.1v171.2h192.6c1.2,4.1,4.5,7.6,9.8,10.7c7,4.1,15.5,6.2,25.4,6.2c10,0,18.4-2.1,25.4-6.2
	c0,0,20.3-8,26.6-8.5c6.3-0.4,19.2-3.5,25.9,1.4c6.7,4.9,14.8,11.6,21.5,11.6s34.9,0.4,34.9,0.4v-15.6V179V31H24V31.1z"/>
<path id="path166" class="st2" d="M24,31.1v171.2h192.6c1.2,4.1,4.5,7.6,9.8,10.7c7,4.1,15.5,6.2,25.4,6.2c10,0,18.4-2.1,25.4-6.2
	c0,0,20.3-8,26.6-8.5c6.3-0.4,19.2-3.5,25.9,1.4c6.7,4.9,14.8,11.6,21.5,11.6s34.9,0.4,34.9,0.4v-15.6V179V31H24V31.1z"/>
<path id="path168" class="st3" d="M24,222.8l237.6,0.2L197,145l-29.3,31l-29.1,13.4l-19.3-27.9l-8,18.7l-8.5-18.9l-13.9-19.1
	L24,108.7V222.8z"/>
<path id="path170" class="st0" d="M292.7,9.5l-10.2,8.7c0,0-2.1,3.8-2.9,4.6c-1,1-3.3,2.1-6,3.6c-3.5,2-7.4,3.9-10.2,6.7
	c-4,4-6,9.3-7.3,14.4c-1.8,7.5-4.2,11.7-12,13.8c-3.4,0.9-12.8,1.5-17.4,1.7c-0.4,0-21.6,0.3-24.1,0.2c-1,0-12.5-0.3-14.4-0.7
	c-0.4-0.1-5.7-3.8-8.8-4.3c-1.7-0.3-3.4-0.1-4.6,0.4c-0.6,0.2-1.6,0.9-2.5,2c-1.4,1.7-1.8,2.2-3.1,2.7c-0.4,0.2-5.4,1.5-5.6,1.6
	c-0.7,0.2-0.8,0.5-0.8,0.5l0.4,0.3c0,0,9.4,0,9.8,0c0.4,0,4,0.6,8.2,0.6c1.8,0,3.9,0.7,5.5,0.8c6.6,0.5,30.4,4,36.9,4.9
	c10.5,1.5,35.7,9.5,44.8,10.9c12.3,1.9,25.7,0.4,35.6-1.6c18.2-3.7,34.2-6.4,53.7-8.9c1.9-0.2,15.4-2.1,15.8-2.2
	c3.3-0.4,3.2-1.9,3.2-1.9s-0.1-1.1-2.2-1c-2.6,0.1-14.5,0.8-16.7,0.9c-16.3,0.9-40.9-0.3-47.1-1.7c-0.8-0.1-1.2-0.2-2.6-0.7
	c-5-2-6.7-7.8-5.2-18c0.9-6.5,9.4-47.8,9.4-47.8v0.1c0,0-0.2,0-0.5,0.5c-0.4,0.8-13.2,23.5-13.2,23.5l3.7-19.4l-10.5,14.7L292.7,9.5
	z"/>
<path id="path172" class="st0" d="M139.5,21.9l-9.6-13.4c0,0-0.3,1.8-1.9,4.3c-4.5,6.8-13.7,15.9-26.7,25.6
	c-0.7,0.5-6.5,4.8-8.5,6.5c-1.6,1.3-1.1,2.9-0.4,4.2s2,3.4,2.5,4.7c2.4,5.4,2.1,9.7-2.1,13.6c-1.6,1.4-3.7,2.7-6.9,4.1
	c-0.9,0.4-2.8,1.2-4.6,1.6c-2.8,0.7-8.2,1.4-11.6,1.7c-2.8,0.2-9.1,0.2-12.1,0.3c-2.8,0.1-14.6,0-17.7,0
	c-11.1-0.3-14.2-0.8-14.2-0.8s-2.7-1.9-4.5-2.8c-2.2-1.2-4.7-1.7-6.6-1.5c-1.2,0.1-2.9,0.5-3.9,1.4c-0.5,0.4-0.5,0.5-1,1
	c-1.1,1.5-1.8,2.2-3.1,2.7c-0.8,0.3-4.8,1.3-5.7,1.6C0,77.1,0,77.3,0,77.3l0.7,0.3h9.8c0,0,3.4,0.7,5.7,0.7c1.3,0,1.4,0,2.5,0
	c1.2,0,1.9,0.2,2.8,0.4s2.3,0.4,3.3,0.6s11.7,1.4,17,2.1c3.8,0.5,9.5,1,13,1.8c4.2,0.9,10.3,2.1,13.9,3.2c0.9,0.3,9.5,2.7,10.3,3
	c7.9,2.5,15.2,4.4,26.9,5.6c10,1,18.2,1,28.5-0.6c8.8-1.1,16.2-3.1,26.2-5.2c11.8-2.5,24.3-3.5,34.6-4.7c4.4-0.5,12.7-1.8,15.9-2.3
	c3.6-0.6,3-1.9,3-1.9s-0.3-1.1-2.2-1c-0.5,0-7.4,0.6-9.2,0.8c-3.8,0.3-9.6,0.5-14.7,0.4c-5.5,0-13.4-0.3-21-1
	c-14.6-1.3-21.1-2-25.5-2.9c-1.4-0.3-3.1-0.7-3.1-1.9c0-0.8,0.7-1.5,2.2-3c2.5-2.5,2.1-4.3,2.2-11.7c0.1-10.2,1.3-22.7,1.1-23.7
	c-0.1-0.8-1.1-1.2-1.9-0.7c-1.2,0.6-3.6,2.8-3.6,2.8s-0.2-0.4,0-1c0.5-1.5,2.4-4.7,3.2-6.1c0.7-1.3,0.9-1.8,0.9-2.3
	c0-0.4-0.3-0.9-1.7-0.6c-0.8,0.1-1.1,0.2-1.9,0.2c-1,0-2.1-0.5-1.6-2.3C137.8,25,139.5,21.9,139.5,21.9"/>
<path id="path174" class="st0" d="M60.3,71c0,0-0.6-3.6-0.5-7.3c0.1-3.8,0.5-7.3,0.5-7.3s0.9,1.3,1.7,2.3c5,5.6,10.7,7.8,20.6,7.5
	c3.4-0.1,5.8-0.7,5.8-0.7s-2.1,1.2-4.6,2.1C73.2,71.4,60.3,71,60.3,71"/>
<path id="path176" class="st0" d="M39.9,253.8l-9.7-22.7h-8.6l3.4,1.3v33.1l-3.4,1.2h8.7l-3.1-1.2v-28l12.4,29.2H42v-34.3l3.3-1.3
	h-8.9l3.5,1.3V253.8z"/>
<path id="path178" class="st4" d="M39.9,253.8l-9.7-22.7h-8.6l3.4,1.3v33.1l-3.4,1.2h8.7l-3.1-1.2v-28l12.4,29.2H42v-34.3l3.3-1.3
	h-8.9l3.5,1.3V253.8z"/>
<path id="path180" class="st0" d="M72.7,253.7h2.9l-2.8-13.4l-0.1,0.5v-6.7l0.8-3.1h1.8l9,34.5l3.2,1.2h-12l3.2-1.2l-2.8-10.9h-3.1
	v-0.9H72.7z"/>
<path id="path182" class="st4" d="M72.7,253.7h2.9l-2.8-13.4l-0.1,0.5v-6.7l0.8-3.1h1.8l9,34.5l3.2,1.2h-12l3.2-1.2l-2.8-10.9h-3.1
	v-0.9H72.7z"/>
<path id="path184" class="st0" d="M72.7,240.8l-2.9,12.9h2.9v0.9h-3l-2.9,10.9l3.2,1.2h-8.7l3.3-1.2l8.2-31.4L72.7,240.8L72.7,240.8
	z"/>
<path id="path186" class="st4" d="M72.7,240.8l-2.9,12.9h2.9v0.9h-3l-2.9,10.9l3.2,1.2h-8.7l3.3-1.2l8.2-31.4L72.7,240.8L72.7,240.8
	z"/>
<path id="path188" class="st0" d="M125.5,242.2v-11H106v11h0.3l3.7-10.1h3v33.4l-4,1.2h13.4l-3.9-1.2v-33.4h3.1l3.7,10.1H125.5z"/>
<path id="path190" class="st4" d="M125.5,242.2v-11H106v11h0.3l3.7-10.1h3v33.4l-4,1.2h13.4l-3.9-1.2v-33.4h3.1l3.7,10.1H125.5z"/>
<path id="path192" class="st0" d="M165.7,232.4l3.2-1.2h-8.8l3.4,1.2c0,0,0,22.5,0,23c-0.3,4-0.8,5.9-1.7,7.7
	c-0.9,1.7-2.3,3-4.1,2.9s-2.4-1.4-2.6-2.2c-0.1-0.4-0.3-1.5-0.5-5.6c0-0.7,0-25.8,0-25.8l3.3-1.2h-12l3.3,1.2c0,0,0,20.9,0,21.4
	c0.1,9.9,3.4,11.6,4.9,12.6c3,1.3,5.3,1.2,7.5-0.3c1.1-0.7,4.2-3,4.3-12.2C165.7,253.5,165.7,232.4,165.7,232.4"/>
<path id="path194" class="st4" d="M165.7,232.4l3.2-1.2h-8.8l3.4,1.2c0,0,0,22.5,0,23c-0.3,4-0.8,5.9-1.7,7.7
	c-0.9,1.7-2.3,3-4.1,2.9s-2.4-1.4-2.6-2.2c-0.1-0.4-0.3-1.5-0.5-5.6c0-0.7,0-25.8,0-25.8l3.3-1.2h-12l3.3,1.2c0,0,0,20.9,0,21.4
	c0.1,9.9,3.4,11.6,4.9,12.6c3,1.3,5.3,1.2,7.5-0.3c1.1-0.7,4.2-3,4.3-12.2C165.7,253.5,165.7,232.4,165.7,232.4L165.7,232.4z"/>
<path id="path196" class="st0" d="M199.9,266.7h0.3H199.9z"/>
<path id="path198" class="st4" d="M199.9,266.7h0.3H199.9z"/>
<path id="path200" class="st0" d="M199.9,232.4c-0.8-0.3-3.1-0.3-3.1-0.3v14.8c0,0,1.3,0.1,3.1-0.3v1.5l-0.8-0.2l-2.2-0.1v17.6
	l3.1,1.2h-11.8l3.3-1.2v-33.2l-3.3-1.2h8c0,0,3.3,0,4,0.1c0.6,0.1,5.3,0.6,7.3,3.6c1.7,2.5,1.4,6,0.8,7.5c-0.9,2.1-2.2,3.1-4.4,4.1
	c-0.5,0.2-3.5,1-3.5,1s2,0.4,2.6,0.5c1.9,0.1,2.9,0.9,3.4,2.2c0.2,0.5,0.5,1.5,0.7,2.1s3.2,13.3,3.2,13.3l3,1.2h-8.5
	c0,0-3-16.1-3.3-17.1c-0.4-1.3-1.4-1.5-1.4-1.5v-1.5l0.2-0.1c0,0,2.3-0.7,2.7-3.5c0.4-3,0.3-5.3,0-7.3
	C202.4,233.2,200.6,232.6,199.9,232.4"/>
<path id="path202" class="st4" d="M199.9,232.4c-0.8-0.3-3.1-0.3-3.1-0.3v14.8c0,0,1.3,0.1,3.1-0.3v1.5l-0.8-0.2l-2.2-0.1v17.6
	l3.1,1.2h-11.8l3.3-1.2v-33.2l-3.3-1.2h8c0,0,3.3,0,4,0.1c0.6,0.1,5.3,0.6,7.3,3.6c1.7,2.5,1.4,6,0.8,7.5c-0.9,2.1-2.2,3.1-4.4,4.1
	c-0.5,0.2-3.5,1-3.5,1s2,0.4,2.6,0.5c1.9,0.1,2.9,0.9,3.4,2.2c0.2,0.5,0.5,1.5,0.7,2.1s3.2,13.3,3.2,13.3l3,1.2h-8.5
	c0,0-3-16.1-3.3-17.1c-0.4-1.3-1.4-1.5-1.4-1.5v-1.5l0.2-0.1c0,0,2.3-0.7,2.7-3.5c0.4-3,0.3-5.3,0-7.3
	C202.4,233.2,200.6,232.6,199.9,232.4z"/>
<path id="path204" class="st0" d="M240.7,253.7h2.9l-2.7-13.4l-0.2,0.6v-6.8l0.9-3.1h1.7l8.9,34.5l3.3,1.2h-12.1l3.3-1.2l-2.8-10.9
	h-3.2L240.7,253.7z"/>
<path id="path206" class="st4" d="M240.7,253.7h2.9l-2.7-13.4l-0.2,0.6v-6.8l0.9-3.1h1.7l8.9,34.5l3.3,1.2h-12.1l3.3-1.2l-2.8-10.9
	h-3.2L240.7,253.7z"/>
<path id="path208" class="st0" d="M240.7,240.9l-2.7,12.8h2.7v0.9h-3l-2.8,10.9l3.3,1.2h-8.8l3.2-1.2l8.2-31.4L240.7,240.9z"/>
<path id="path210" class="st4" d="M240.7,240.9l-2.7,12.8h2.7v0.9h-3l-2.8,10.9l3.3,1.2h-8.8l3.2-1.2l8.2-31.4L240.7,240.9z"/>
<path id="path212" class="st0" d="M288.7,233.2l-1.7-2.5v11.5h0.1c0,0,1.8-6.9,3.1-8.8c1.2-1.8,3.5-1.6,4.5-0.1
	c0.6,0.9,1.5,3-0.2,9.3c-0.9,3.4-8.6,24.1-8.6,24.1h12.2v-11.1H298l-2.4,8.5h-7.5c0,0,9.6-18,10.6-22.7c1.2-5.7-1.3-9.2-4.3-10.2
	C291.1,230,288.7,233.2,288.7,233.2"/>
<path id="path214" class="st4" d="M288.7,233.2l-1.7-2.5v11.5h0.1c0,0,1.8-6.9,3.1-8.8c1.2-1.8,3.5-1.6,4.5-0.1
	c0.6,0.9,1.5,3-0.2,9.3c-0.9,3.4-8.6,24.1-8.6,24.1h12.2v-11.1H298l-2.4,8.5h-7.5c0,0,9.6-18,10.6-22.7c1.2-5.7-1.3-9.2-4.3-10.2
	C291.1,230,288.7,233.2,288.7,233.2L288.7,233.2z"/>
<path id="path216" class="st5" d="M146.6,30.8h113.7 M24,68.3V30.8h81.3"/>
<path id="path218" class="st6" d="M24,222.8V87.9"/>
<path id="path220" class="st3" d="M226.3,168.6c0,0,0.3,0.3,0.6,0.6c3.4,3.7,14.7,17.5,14.7,17.5s9.9,4.5,27.1,4
	c8.2-0.2,17.5-2.5,21.8-3.3c1.7-0.3,3.3-0.6,5.9-0.9c9.2-1,13.4-1,20.4,3.5c1.7,1.1,19.6,11.9,20.8,12.7c6.6,4.1,16.1,3.2,19.9,1.9
	c7.6-2.5,13.5-4.5,23.6-3c1.3,0.2,4.8,1,4.8,1s-9.8-7.2-14.4-9.8c-6.1-3.4-12.5-4.9-18.4-3.8c-1.2,0.2-0.1-0.1-0.1-0.1
	s-13.1,3.1-19.9,3.5c-3,0.1-11.1,0.9-19.8-7.3c-4.1-4.1-7.2-6.9-8.9-8c-3.8-2.4-8.9-3-13.4-3.1c-1.5,0-13.1,0.4-22.6,0.6
	c-9.3,0.3-26.6-0.9-35.2-3.9C231.3,170.3,226.3,168.6,226.3,168.6"/>
<path id="path222" class="st3" d="M386.9,222.4l-0.4-9.5c0,0-5.9-3-13.9-3.1c-5.3-0.1-10.8,1.7-19.7,3.6c-3.9,0.9-10.9,1.3-15.6-1.8
	c-3.8-2.5-6.8-4.8-9.5-7.4c-1.3-1.3-2.4-2.7-4.5-4.7c-4.5-4.4-6.3-5.4-10.5-5.7c-6.7-0.5-12.7,0.8-19.5,1.4
	c-9.4,0.8-25.8,2.7-47.5-3.6c-1.2-0.4-1.2-0.6-1.2-0.6s2.6,2.7,3.6,3.7c7.6,7.9,22.6,25.9,22.6,25.9s1-0.5,3.1-1.5
	c17.6-8.4,33.6-10.9,36.6-11.3c8.7-1.4,15.5-1.4,21.4,2.6c1.7,1.1,1.6,1,3.5,2.3c6.5,4.2,16.9,11,22.3,12.7c5.8,1.9,9.8,2,14.8,0.8
	C378.6,224.6,386.9,222.4,386.9,222.4"/>
<path id="path224" class="st6" d="M311,30.8h76.2v191.6"/>
<path id="path226" class="st7" d="M150.3,121.5l-3.1,8h-10.3l8.3,5.2l-3.2,8.4l8.3-5.2l8.4,5.2l-3.3-8.3l8.3-5.2h-10.5L150.3,121.5z
	 M140.4,152l-3,7.9h-10.3l8.3,5.2l-3.3,8.4l8.3-5.2l8.4,5.2l-3.3-8.3l8.4-5.2h-10.5L140.4,152z M284.8,152l-3,8h-10.4l8.3,5.2
	l-3.2,8.4l8.3-5.2l8.3,5.2l-3.2-8.3l8.4-5.2h-10.4L284.8,152z M275.3,121.5l-3.1,8H262l8.2,5.2l-3.3,8.4l8.4-5.2l8.4,5.2l-3.4-8.3
	l8.5-5.2h-10.4L275.3,121.5z M250.3,98.5l-3,7.9H237l8.3,5.2l-3.2,8.3l8.4-5.1l8.3,5.1l-3.3-8.3l8.4-5.2h-10.4L250.3,98.5z
	 M212.7,91.8l-3,8h-10.2l8.3,5.1l-3.3,8.5l8.2-5.2l8.5,5.2l-3.3-8.4l8.4-5.2h-10.5L212.7,91.8z M175.2,98.3l-3.1,8h-10.3l8.3,5.2
	l-3.2,8.4l8.3-5.2l8.3,5.2l-3.2-8.3l8.3-5.2h-10.4L175.2,98.3z"/>
</svg>
