<?xml version="1.0" encoding="utf-8"?>
<!-- Generator: Adobe Illustrator 27.2.0, SVG Export Plug-In . SVG Version: 6.00 Build 0)  -->
<svg version="1.1" id="Capa_1" xmlns="http://www.w3.org/2000/svg" xmlns:xlink="http://www.w3.org/1999/xlink" x="0px" y="0px"
	 viewBox="0 0 20 20" style="enable-background:new 0 0 20 20;" xml:space="preserve">
<style type="text/css">
	.st0{fill:#7A8089;}
</style>
<path class="st0" d="M17.1,11.6c-0.4-0.4-0.9-0.5-1.4-0.3C15.3,11.6,15,12,15,12.5v1.3l0,0h-0.2c0,0-2,0-2.7-0.9
	c-0.9-1-1.9-1.9-2.9-2.8c1.2-1.3,2.4-2.4,3.5-3.6c0.2-0.2,0.4-0.2,0.7-0.3c0.4,0,0.7,0,1.1,0c0,0,0.2,0,0.5,0l0,0v1.2
	c0,0.5,0.3,1,0.8,1.2s1,0.1,1.4-0.3l2.5-2.5c0.5-0.5,0.5-1.3,0-1.8l-2.5-2.5c-0.4-0.4-0.9-0.5-1.4-0.3C15.3,1.5,15,2,15,2.5v1.3l0,0
	h-0.4c-0.1,0-0.5,0-0.6,0c-1.3,0-2.4,0.4-3.3,1.4C9.6,6.3,8.4,7.3,7.4,8.4C7.1,8.7,6.9,8.8,6.6,8.8c-1.4,0-2.8,0-4.2,0
	c-0.4,0-0.8,0-1.2,0C0.5,8.8,0,9.3,0,10s0.4,1.1,1.1,1.2c0.2,0,0.4,0,0.6,0c1.6,0,3.2,0,4.8,0c0.3,0,0.6,0.1,0.7,0.3
	c1.2,1.2,2.4,2.3,3.5,3.5c0.6,0.6,1.3,1,2.1,1.1c0.5,0.1,1,0.1,1.5,0.1c0,0,0.2,0,0.5,0l0,0v1.2c0,0.5,0.3,1,0.8,1.2
	c0.5,0.2,1,0.1,1.4-0.3l2.5-2.5c0.5-0.5,0.5-1.3,0-1.8L17.1,11.6z"/>
</svg>
